<svg width="780" height="978" viewBox="0 0 780 978" fill="none" xmlns="http://www.w3.org/2000/svg">
<g clip-path="url(#clip0_61_164)">
<path d="M780.335 0.642578H0.665161V977.357H780.335V0.642578Z" fill="white" stroke="#231F20" stroke-miterlimit="10"/>
<path d="M178.804 0.642578H0.665161V105.691H178.804V0.642578Z" fill="#ED1C24" stroke="#231F20" stroke-miterlimit="10"/>
<path d="M328.023 0.642578H178.804V369.597H328.023V0.642578Z" fill="white" stroke="#231F20" stroke-miterlimit="10"/>
<path d="M83.9546 105.691H0.665161V255.437H83.9546V105.691Z" fill="#FFF200" stroke="#231F20" stroke-miterlimit="10"/>
<path d="M178.804 189.676H83.9546V309.246H178.804V189.676Z" fill="#1C75BC" stroke="#231F20" stroke-miterlimit="10"/>
<path d="M178.804 309.246H0.665161V509.28H178.804V309.246Z" fill="#231F20" stroke="#231F20" stroke-miterlimit="10"/>
<path d="M678.541 0.642578H328.036V249.461H678.541V0.642578Z" fill="white" stroke="#231F20" stroke-miterlimit="10"/>
<path d="M780.335 62.2783H678.541V132.679H780.335V62.2783Z" fill="#ED1C24" stroke="#231F20" stroke-miterlimit="10"/>
<path d="M780.335 132.679H749.1V249.461H780.335V132.679Z" fill="#231F20" stroke="#231F20" stroke-miterlimit="10"/>
<path d="M749.1 191.063H678.541V218.72H749.1V191.063Z" fill="#1C75BC" stroke="#231F20" stroke-miterlimit="10"/>
<path d="M749.1 235.491H678.541V303.656H749.1V235.491Z" fill="#FFF200" stroke="#231F20" stroke-miterlimit="10"/>
<path d="M582.521 249.461H417.099V445.588H582.521V249.461Z" fill="#231F20" stroke="#231F20" stroke-miterlimit="10"/>
<path d="M678.528 303.656H582.521V445.575H678.528V303.656Z" fill="#ED1C24" stroke="#231F20" stroke-miterlimit="10"/>
<path d="M780.335 249.461H749.1V635.559H780.335V249.461Z" fill="white" stroke="#231F20" stroke-miterlimit="10"/>
<path d="M749.1 445.588H288.7V635.572H749.1V445.588Z" fill="white" stroke="#231F20" stroke-miterlimit="10"/>
<path d="M288.7 369.597H178.804V559.581H288.7V369.597Z" fill="#FFF200" stroke="#231F20" stroke-miterlimit="10"/>
<path d="M545.499 83.509H446.02V249.461H545.499V83.509Z" fill="#FFF200" stroke="#231F20" stroke-miterlimit="10"/>
<path d="M678.541 0.642578H491.143V83.5091H678.541V0.642578Z" fill="#1C75BC" stroke="#231F20" stroke-miterlimit="10"/>
<path d="M446.033 83.509H328.036V141.624H446.033V83.509Z" fill="#231F20" stroke="#231F20" stroke-miterlimit="10"/>
<path d="M780.335 635.559H532.781V805.417H780.335V635.559Z" fill="white" stroke="#231F20" stroke-miterlimit="10"/>
<path d="M288.7 559.568H178.804V805.417H288.7V559.568Z" fill="white" stroke="#231F20" stroke-miterlimit="10"/>
<path d="M178.804 643.385H0.665161V765.192H178.804V643.385Z" fill="#ED1C24" stroke="#231F20" stroke-miterlimit="10"/>
<path d="M532.781 805.43H446.02V872.476H532.781V805.43Z" fill="#231F20" stroke="#231F20" stroke-miterlimit="10"/>
<path d="M780.335 872.476H532.781V977.357H780.335V872.476Z" fill="#1C75BC" stroke="#231F20" stroke-miterlimit="10"/>
<path d="M446.02 635.559H360.415V805.417H446.02V635.559Z" fill="#FFF200" stroke="#231F20" stroke-miterlimit="10"/>
<path d="M387.035 805.43H218.141V977.357H387.035V805.43Z" fill="white" stroke="#231F20" stroke-miterlimit="10"/>
<path d="M532.781 872.476H387.021V909.36H532.781V872.476Z" fill="#ED1C24" stroke="#231F20" stroke-miterlimit="10"/>
<path d="M218.141 805.43H0.665161V872.476H218.141V805.43Z" fill="#231F20" stroke="#231F20" stroke-miterlimit="10"/>
<path d="M83.9413 872.476H15.6974V977.357H83.9413V872.476Z" fill="#1C75BC" stroke="#231F20" stroke-miterlimit="10"/>
<path d="M417.099 369.597H288.7V409.269H417.099V369.597Z" fill="#ED1C24" stroke="#231F20" stroke-miterlimit="10"/>
</g>
<defs>
<clipPath id="clip0_61_164">
<rect width="781" height="978" fill="white"/>
</clipPath>
</defs>
</svg>
